<?xml version="1.0" standalone="no"?>
<!DOCTYPE svg PUBLIC "-//W3C//DTD SVG 20010904//EN"
 "http://www.w3.org/TR/2001/REC-SVG-20010904/DTD/svg10.dtd">
<svg version="1.0" xmlns="http://www.w3.org/2000/svg"
 width="1024.000000pt" height="1024.000000pt" viewBox="0 0 1024.000000 1024.000000"
 preserveAspectRatio="xMidYMid meet">

<g transform="translate(0.000000,1024.000000) scale(0.100000,-0.100000)"
fill="#000000" stroke="none">
<path d="M0 5120 l0 -5120 5120 0 5120 0 0 5120 0 5120 -5120 0 -5120 0 0
-5120z m5723 3743 l548 -6 -2 -362 -2 -363 -1014 2 -1013 1 0 362 0 362 83 4
c167 6 868 7 1400 0z m1776 -673 c-14 -61 -100 -65 -125 -5 -19 46 -19 145 0
145 10 0 17 -17 21 -57 10 -88 13 -95 43 -91 25 3 27 7 34 67 4 35 11 71 15
80 9 20 20 -104 12 -139z m221 98 c18 23 37 39 41 35 15 -15 15 -175 2 -180
-9 -3 -13 9 -13 41 0 56 -18 61 -51 15 -23 -33 -35 -29 -41 11 -5 42 -23 28
-26 -22 -2 -34 -7 -48 -18 -48 -11 0 -14 20 -14 102 l0 102 43 -49 43 -49 34
42z m-1076 27 c30 -30 30 -57 2 -82 -15 -13 -38 -23 -52 -23 -24 0 -28 -7 -24
-49 1 -19 -2 -22 -15 -17 -9 3 -19 6 -21 6 -7 0 -4 166 3 173 13 13 92 7 107
-8z m195 -69 c23 -44 41 -85 41 -93 0 -21 -28 -15 -35 7 -5 16 -15 20 -47 20
-31 0 -41 -4 -45 -20 -6 -24 -33 -27 -33 -3 0 25 62 174 71 171 4 -2 26 -39
48 -82z m220 67 c26 -21 28 -45 10 -92 -13 -31 -13 -34 9 -48 29 -20 28 -33
-3 -33 -14 0 -25 4 -25 9 0 12 -47 61 -60 61 -5 0 -10 -16 -10 -35 0 -26 -3
-33 -15 -29 -12 5 -15 25 -15 95 l0 89 44 0 c27 0 52 -7 65 -17z m229 0 c-2
-13 -15 -19 -46 -21 -33 -2 -42 -7 -42 -22 0 -19 19 -30 51 -30 10 0 19 -4 19
-10 0 -5 -9 -10 -19 -10 -38 0 -51 -11 -51 -46 0 -35 -13 -46 -24 -18 -3 9 -6
51 -6 95 l0 79 61 0 c52 0 60 -2 57 -17z m712 13 c0 -25 -16 -36 -56 -36 -37
0 -44 -3 -44 -19 0 -16 8 -20 38 -23 48 -4 52 -32 5 -36 -26 -3 -33 -8 -33
-24 0 -18 4 -20 35 -15 30 5 35 3 35 -14 0 -16 -7 -19 -55 -19 l-55 0 0 89 0
90 33 4 c50 6 97 7 97 3z m-4563 -37 c25 -22 14 -32 -32 -27 -38 5 -45 3 -45
-12 0 -19 19 -30 49 -30 10 0 26 -9 36 -20 24 -27 11 -68 -28 -90 -25 -14 -30
-13 -64 5 -54 30 -54 45 1 32 34 -8 49 -7 61 3 23 19 18 28 -17 35 -51 11 -78
32 -78 61 0 53 73 79 117 43z m-209 -6 c-2 -13 -15 -19 -46 -21 -34 -3 -43 -7
-40 -20 2 -9 10 -17 18 -18 8 -1 25 -2 38 -2 38 -3 26 -30 -15 -34 -31 -2 -39
-7 -41 -25 -3 -21 1 -23 42 -23 34 0 46 -4 46 -15 0 -12 -14 -15 -62 -15 l-63
0 3 89 c4 100 2 98 80 100 36 1 43 -2 40 -16z m431 8 c9 -6 11 -20 6 -49 -6
-35 -4 -41 14 -47 25 -8 27 -32 5 -63 -20 -29 -70 -29 -101 0 -27 25 -31 68
-7 68 14 0 14 1 0 16 -20 19 -20 34 0 62 16 23 57 29 83 13z m1817 -239 c-12
-11 -18 7 -10 30 l8 23 4 -23 c2 -13 1 -26 -2 -30z m160 27 c7 -12 -12 -29
-34 -29 -10 0 -10 4 0 20 14 23 24 25 34 9z m-696 -14 c0 -16 -35 -21 -44 -6
-8 12 4 21 26 21 10 0 18 -7 18 -15z m624 0 c3 -8 1 -15 -4 -15 -6 0 -10 7
-10 15 0 8 2 15 4 15 2 0 6 -7 10 -15z m296 -272 l0 -203 -30 0 -30 0 -2 183
c-3 180 -3 182 -25 185 l-23 3 -2 -188 c-2 -119 -7 -187 -13 -185 -6 1 -9 69
-6 186 l3 184 -36 4 c-21 2 -36 0 -36 -7 -1 -5 0 -92 0 -192 1 -121 -3 -183
-10 -183 -6 0 -10 48 -11 133 -1 72 -4 161 -8 197 -6 62 -7 65 -33 68 -21 3
-28 -1 -29 -15 0 -10 0 -100 1 -200 1 -125 -2 -183 -9 -183 -7 0 -11 57 -11
173 0 206 -2 217 -41 217 l-29 0 0 -196 c0 -152 -3 -195 -12 -192 -10 4 -14
56 -18 199 l-5 194 -25 0 -25 0 -3 -197 c-2 -190 -3 -198 -22 -198 -19 0 -20
7 -20 189 0 174 -6 221 -26 190 -3 -6 -7 -93 -8 -193 l-1 -182 -264 1 -263 0
7 171 c7 174 4 191 -29 178 -14 -5 -16 -30 -16 -175 l0 -169 -35 0 -35 0 0
199 0 200 33 3 c17 2 283 3 590 3 l557 0 0 -202z m870 -293 c117 -21 239 -90
332 -186 72 -75 152 -202 180 -288 l23 -71 0 -1560 0 -1560 -21 -55 c-68 -172
-98 -222 -191 -320 -81 -85 -194 -154 -298 -180 -79 -20 -104 -21 -1490 -21
l-1411 -1 -70 24 c-95 33 -197 95 -275 167 -74 68 -137 175 -183 312 l-25 75
2 1570 3 1569 22 79 c30 107 82 196 161 275 67 67 174 137 246 161 22 8 69 16
105 19 128 12 2824 3 2890 -9z m-3989 -2070 c5 0 9 -10 9 -21 0 -19 -4 -20
-35 -15 -49 10 -46 -10 12 -60 43 -37 46 -44 37 -65 -6 -13 -24 -31 -39 -39
-24 -13 -30 -12 -63 5 -49 27 -55 47 -8 33 73 -23 90 21 21 56 -33 18 -40 26
-40 51 0 24 7 33 35 48 19 9 41 15 48 12 8 -3 18 -5 23 -5z m5138 -3 c35 -18
26 -32 -21 -32 -58 0 -60 -21 -3 -46 25 -11 49 -27 52 -35 9 -24 -6 -63 -31
-79 -21 -14 -28 -14 -65 1 -47 19 -55 39 -12 29 30 -6 71 8 71 25 0 5 -22 21
-49 34 -62 32 -69 50 -32 87 32 32 53 35 90 16z m-5326 -17 c-4 -16 -14 -20
-50 -20 -37 0 -44 -3 -41 -17 2 -13 14 -19 40 -21 26 -2 37 -9 41 -23 4 -16 0
-19 -34 -19 -21 0 -39 -2 -39 -4 0 -2 -3 -11 -6 -20 -5 -13 2 -16 40 -16 39 0
46 -3 46 -20 0 -18 -7 -20 -60 -20 l-60 0 0 94 0 95 33 4 c82 10 95 8 90 -13z
m397 7 c0 -19 -20 -36 -35 -31 -25 10 -35 -95 -11 -116 8 -6 25 -10 38 -8 18
2 23 9 23 33 0 20 -5 31 -17 33 -15 3 -17 -2 -12 -27 8 -38 -8 -41 -25 -5 -9
20 -9 30 0 40 29 35 99 2 99 -46 0 -58 -81 -81 -124 -35 -34 37 -35 117 -1
151 26 26 65 33 65 11z m4733 7 c15 -16 -8 -34 -44 -34 -28 0 -39 -4 -39 -15
0 -16 5 -19 52 -29 21 -5 27 -13 33 -46 8 -50 -6 -70 -49 -70 -75 0 -77 3 -73
98 3 82 4 87 28 93 31 9 84 11 92 3z m373 -29 c-14 -13 -26 -32 -26 -42 1 -13
11 -6 40 26 22 24 40 37 40 29 0 -8 -9 -23 -20 -33 -21 -19 -18 -35 7 -35 25
0 53 -30 53 -56 0 -28 -39 -57 -72 -52 -19 2 -24 10 -26 43 -2 22 -8 45 -14
50 -7 7 -9 -4 -5 -38 4 -40 2 -46 -9 -36 -9 8 -14 33 -14 74 0 83 5 95 43 95
l30 0 -27 -25z m-1726 -2417 c0 -22 -14 -35 -51 -47 -25 -8 -40 -21 -47 -39
-6 -15 -13 -151 -17 -302 -7 -302 -11 -320 -74 -392 -53 -60 -110 -82 -221
-82 -114 -1 -171 22 -224 87 -54 68 -57 88 -62 392 -3 154 -7 289 -9 301 -5
22 -43 44 -75 44 -13 0 -20 7 -20 19 0 17 10 18 160 18 144 0 160 -2 160 -17
0 -11 -12 -21 -32 -26 l-33 -10 -2 -314 c-3 -310 -2 -316 20 -355 57 -101 207
-110 295 -17 58 63 62 82 62 384 0 152 -3 284 -6 292 -4 9 -23 19 -45 22 -29
5 -39 11 -39 25 0 16 11 19 108 22 59 1 117 4 130 5 12 1 22 -4 22 -10z m1110
-11 c0 -19 -7 -25 -42 -33 -31 -6 -46 -16 -55 -34 -8 -17 -13 -129 -15 -358
l-3 -334 28 -24 c16 -13 39 -24 53 -24 17 0 24 -6 24 -18 0 -17 -12 -18 -170
-18 -155 1 -170 3 -170 19 0 12 8 17 28 17 16 0 37 6 47 14 18 13 20 33 23
300 3 179 1 286 -5 286 -6 0 -23 -33 -38 -72 -16 -40 -47 -111 -71 -158 -23
-47 -67 -144 -97 -217 -31 -72 -65 -148 -75 -170 l-20 -38 -22 50 c-12 28 -48
122 -80 210 -32 88 -73 194 -93 236 -19 42 -40 92 -46 112 -16 49 -35 48 -28
0 2 -21 0 -141 -5 -267 -11 -255 -8 -270 44 -284 18 -4 34 -16 36 -25 3 -15
-9 -17 -117 -17 -112 0 -121 1 -121 19 0 13 10 21 34 25 62 12 65 31 73 405 5
253 3 334 -6 345 -7 8 -30 17 -51 21 -36 6 -59 28 -42 39 5 3 53 4 107 3 l100
-2 27 -50 c44 -79 117 -249 168 -390 53 -144 70 -185 79 -185 3 0 25 50 49
112 60 154 125 305 179 420 l46 97 101 4 c56 1 107 4 114 5 6 1 12 -8 12 -21z
m-4656 1 c67 -14 113 -38 155 -81 107 -109 109 -254 4 -348 -77 -70 -222 -103
-305 -70 l-28 11 0 -134 c0 -120 2 -136 21 -160 14 -17 30 -26 50 -26 31 0 32
-1 23 -24 -5 -14 -31 -16 -181 -16 -159 0 -174 1 -171 17 2 10 16 20 33 23 17
4 40 12 53 19 l22 12 0 342 c0 253 -4 348 -13 367 -9 18 -25 28 -55 34 -30 7
-42 15 -42 28 0 16 14 18 191 18 105 -1 214 -6 243 -12z m981 -56 c3 -37 8
-86 11 -109 5 -40 3 -43 -18 -43 -19 0 -27 11 -46 59 -35 90 -44 95 -178 99
l-114 4 0 -173 0 -172 80 7 c103 8 108 11 116 54 8 54 12 62 27 62 25 0 34
-99 21 -229 -6 -50 -10 -61 -25 -61 -15 0 -19 8 -19 34 0 59 -23 75 -122 82
l-88 7 0 -159 c0 -224 -9 -208 121 -201 68 3 118 11 138 21 36 19 78 77 92
129 7 27 15 37 30 37 16 0 19 -4 14 -20 -3 -11 -10 -65 -14 -120 -4 -55 -10
-101 -12 -103 -2 -1 -140 -1 -306 1 -287 3 -303 4 -303 22 0 14 10 20 41 25
30 5 43 13 50 32 5 13 9 178 9 367 0 382 3 363 -70 373 -34 5 -50 20 -36 34 2
2 137 5 299 6 l295 3 7 -68z m605 57 c137 -28 215 -112 214 -234 -1 -97 -54
-175 -139 -206 -19 -7 -35 -17 -35 -23 0 -8 51 -94 174 -291 68 -109 135 -157
238 -173 l53 -8 -39 -13 c-53 -18 -159 -10 -221 18 -91 40 -160 124 -255 310
-67 131 -77 141 -136 141 l-47 0 7 -37 c3 -21 6 -91 6 -156 l0 -119 40 -15
c23 -10 40 -23 40 -32 0 -14 -19 -16 -160 -13 -151 3 -160 4 -160 22 0 15 7
20 28 20 16 0 37 6 48 14 18 14 19 30 22 293 1 153 -1 316 -5 363 l-8 85 -47
16 c-53 17 -63 24 -54 37 8 13 371 14 436 1z m1030 -31 c0 -24 3 -73 7 -110 5
-62 4 -68 -13 -68 -14 0 -26 17 -44 60 -39 95 -46 99 -180 101 l-115 1 0 -172
0 -173 75 2 c90 3 118 23 127 89 4 26 11 42 19 42 8 0 14 -1 15 -2 0 -2 3 -69
5 -150 4 -137 3 -148 -13 -148 -12 0 -24 17 -38 53 l-20 52 -90 3 -90 3 5
-173 5 -173 35 -11 c19 -6 36 -19 38 -28 3 -14 -14 -16 -157 -16 -154 0 -161
1 -161 20 0 16 7 20 30 20 17 0 39 9 50 20 19 19 20 33 20 358 0 185 -3 347
-6 358 -6 24 -42 44 -79 44 -17 0 -25 6 -25 18 0 17 18 18 300 20 l300 2 0
-42z m2770 -11 c0 -30 3 -82 6 -116 6 -52 5 -61 -9 -61 -11 0 -30 26 -51 68
-47 94 -62 102 -184 102 l-99 0 -7 -59 c-4 -33 -6 -109 -5 -170 l1 -111 67 1
c105 2 113 6 134 72 11 34 24 57 33 57 11 0 14 -27 14 -150 0 -143 -1 -150
-20 -150 -15 0 -22 11 -31 45 -6 24 -17 49 -25 56 -7 6 -49 13 -94 16 l-80 6
0 -145 c0 -80 3 -160 6 -177 l7 -31 99 0 c135 0 179 25 217 126 19 48 43 75
57 61 4 -3 2 -32 -5 -63 -6 -32 -11 -76 -11 -98 0 -90 28 -82 -316 -82 -229 1
-305 4 -308 13 -6 15 0 19 46 27 21 4 42 15 47 24 5 9 10 176 12 370 4 391 9
366 -63 378 -26 5 -38 12 -38 23 0 14 31 16 300 19 l300 3 0 -54z m-3957
-1104 c41 -92 107 -249 107 -258 0 -3 -17 -5 -37 -3 -32 3 -38 8 -48 38 -12
35 -12 35 -78 38 -65 3 -66 2 -73 -25 -4 -15 -11 -34 -17 -40 -11 -14 -81 -18
-75 -4 2 4 37 81 78 170 52 111 80 161 91 161 11 0 29 -27 52 -77z m537 59
c19 -11 42 -35 53 -55 16 -32 17 -38 3 -71 -8 -20 -19 -36 -23 -36 -4 0 -16
-7 -27 -15 -18 -13 -16 -17 28 -79 25 -35 46 -66 46 -68 0 -2 -16 -4 -35 -5
-32 -1 -40 5 -82 60 -26 34 -47 63 -47 63 -1 1 -11 5 -23 8 -22 7 -23 5 -23
-61 l0 -69 -36 4 -35 4 4 167 c3 91 5 167 6 169 1 1 36 2 79 2 56 0 87 -5 112
-18z m558 -16 l-3 -31 -85 -5 -85 -5 -3 -32 -3 -32 73 -3 73 -3 0 -30 0 -30
-72 -3 -73 -3 0 -64 0 -65 -30 0 -30 0 0 163 c0 90 2 166 4 168 3 2 57 5 121
5 l116 2 -3 -32z m304 -79 c5 -85 10 -113 25 -129 25 -28 60 -40 83 -28 46 25
50 37 50 151 l0 109 30 0 30 0 0 -117 c0 -104 -2 -120 -22 -149 -30 -44 -68
-64 -122 -64 -36 0 -52 6 -80 31 -45 39 -56 79 -56 207 l0 103 28 -3 27 -3 7
-108z m587 64 c17 -27 41 -70 52 -95 11 -25 23 -46 27 -46 4 0 16 17 27 38 10
20 34 62 52 93 30 50 37 55 63 51 28 -4 29 -6 34 -76 3 -39 7 -113 8 -164 l3
-92 -37 0 -37 0 -3 107 -3 107 -45 -84 c-58 -110 -70 -111 -125 -8 -23 43 -44
80 -46 83 -3 3 -4 -43 -1 -102 4 -97 3 -106 -12 -100 -10 4 -24 7 -32 7 -19 0
-21 316 -1 323 30 13 46 4 76 -42z m769 17 l-3 -33 -87 -3 -88 -3 0 -34 0 -35
71 0 70 0 -3 -32 -3 -33 -67 1 -68 1 0 -34 0 -33 90 0 90 0 0 -36 0 -37 -37 7
c-21 3 -77 6 -125 6 l-88 0 0 160 0 159 73 4 c39 1 96 4 125 5 l53 2 -3 -32z
m-3177 -15 c36 -41 44 -74 27 -109 -22 -45 -61 -67 -128 -72 l-60 -4 0 -54 0
-54 -33 0 -34 0 1 166 1 166 98 -4 c97 -3 99 -4 128 -35z m-525 -113 c8 0 20
-11 26 -25 9 -21 8 -28 -7 -45 -32 -35 -125 -21 -125 19 0 29 49 64 78 55 8
-2 20 -4 28 -4z m4062 -15 c46 -13 12 -75 -43 -75 -37 0 -55 15 -55 47 0 15 8
27 23 33 22 8 30 8 75 -5z m-2845 -466 c44 -84 47 -112 15 -107 -18 2 -25 13
-34 48 -14 59 -24 81 -35 74 -16 -9 -10 -40 11 -59 28 -25 25 -35 -10 -35 -18
0 -33 -6 -36 -15 -4 -8 -13 -15 -21 -15 -11 0 -14 7 -9 28 11 42 64 152 74
152 5 0 25 -32 45 -71z m268 50 c27 -27 22 -30 -26 -19 -35 8 -42 7 -57 -11
-27 -32 -23 -73 7 -89 20 -10 28 -11 37 -2 9 9 9 15 0 24 -18 18 -14 38 7 38
40 0 51 -11 51 -51 0 -33 -4 -41 -26 -49 -43 -17 -65 -11 -100 24 -45 45 -45
82 -2 125 38 37 78 41 109 10z m159 -60 c0 -57 3 -67 15 -63 22 9 62 -4 69
-21 4 -12 -6 -15 -59 -15 l-65 0 0 83 c0 88 3 99 26 90 10 -4 14 -24 14 -74z
m898 -18 c3 -84 1 -92 -15 -89 -13 3 -18 13 -18 38 0 33 -2 35 -39 38 l-39 3
7 -41 c6 -36 4 -41 -11 -38 -15 3 -18 16 -21 91 -2 71 0 87 12 87 9 0 16 -12
18 -32 3 -28 7 -34 32 -36 33 -4 46 10 46 51 0 18 4 27 13 25 8 -3 13 -34 15
-97z m357 34 c9 42 20 60 36 60 11 0 14 -20 16 -87 1 -80 0 -88 -18 -88 -14 0
-19 7 -19 26 0 20 -4 24 -18 20 -12 -4 -26 1 -37 14 -26 29 -31 25 -27 -20 4
-36 2 -40 -18 -40 -22 0 -22 3 -16 53 3 28 6 70 6 92 l0 39 44 -49 44 -50 7
30z m284 49 c11 -10 -16 -24 -49 -24 -25 0 -40 -5 -44 -16 -9 -24 2 -34 40
-34 19 0 34 -4 34 -10 0 -5 -18 -10 -40 -10 -28 0 -40 -4 -40 -14 0 -18 27
-28 52 -20 21 6 48 -11 48 -32 0 -11 -16 -14 -65 -14 l-65 0 0 93 0 93 63 -4
c34 -2 64 -6 66 -8z m-2189 -9 c0 -10 -10 -15 -30 -15 -16 0 -30 -2 -30 -4 0
-2 14 -18 30 -36 53 -57 31 -110 -46 -110 -21 0 -25 4 -22 23 2 17 9 22 31 22
35 -1 34 8 -8 58 -52 61 -48 77 20 77 42 0 55 -3 55 -15z m980 -47 c0 -35 3
-73 6 -85 9 -34 -27 -30 -48 5 -9 15 -30 40 -47 56 l-31 30 0 -57 c0 -44 -3
-57 -15 -57 -12 0 -15 16 -15 80 0 94 10 101 67 45 20 -19 40 -35 44 -35 5 0
12 18 15 40 10 61 24 48 24 -22z m170 53 c0 -6 -4 -13 -10 -16 -5 -3 -10 -29
-10 -57 0 -46 2 -50 21 -45 29 8 49 -2 49 -24 0 -16 -8 -19 -50 -19 l-50 0 0
85 c0 84 0 85 25 85 14 0 25 -4 25 -9z m550 -81 c0 -83 -1 -90 -20 -90 -19 0
-20 7 -20 90 0 83 1 90 20 90 19 0 20 -7 20 -90z m467 34 c-3 -3 -12 -4 -19
-1 -8 3 -5 6 6 6 11 1 17 -2 13 -5z"/>
<path d="M5010 8782 c-52 -2 -225 -6 -385 -10 l-290 -7 -3 -272 -2 -273 705 0
706 0 -3 32 -3 33 -677 0 -678 0 0 155 c0 85 3 184 6 220 l6 65 596 2 c407 1
598 5 605 12 8 8 7 15 -3 26 -12 11 -61 15 -250 17 -129 2 -278 2 -330 0z"/>
<path d="M5987 8779 c-15 -9 -17 -34 -17 -284 l0 -275 30 0 30 0 0 274 c0 287
-3 307 -43 285z"/>
<path d="M5786 8497 c1 -269 2 -282 20 -282 18 0 19 13 22 283 l2 282 -22 0
-23 0 1 -283z"/>
<path d="M5877 8774 c-4 -4 -7 -133 -7 -286 l0 -279 33 3 32 3 0 280 0 280
-25 3 c-14 2 -29 0 -33 -4z"/>
<path d="M6060 8552 c0 -125 3 -251 6 -279 l7 -53 58 0 59 0 0 243 c0 133 -3
258 -6 278 l-6 35 -59 2 -59 2 0 -228z m90 -48 c0 -156 -4 -244 -10 -244 -6 0
-10 90 -10 251 0 164 3 248 10 244 6 -4 10 -98 10 -251z"/>
<path d="M5673 8763 c-28 -11 -10 -24 29 -21 51 4 66 28 16 27 -18 0 -39 -3
-45 -6z"/>
<path d="M5223 8639 c-36 -11 -90 -61 -104 -96 -26 -70 2 -147 66 -177 96 -46
210 27 210 134 0 94 -87 164 -172 139z m67 -114 c17 -20 5 -62 -21 -70 -21 -7
-69 18 -69 36 0 6 5 19 10 30 13 23 62 26 80 4z"/>
<path d="M6560 8265 c0 -18 5 -25 19 -25 33 0 51 11 51 31 0 15 -7 19 -35 19
-31 0 -35 -3 -35 -25z"/>
<path d="M6775 8240 c-10 -16 9 -33 30 -28 16 3 15 5 -3 21 -14 13 -22 15 -27
7z"/>
<path d="M6980 8269 c0 -28 3 -31 23 -25 12 3 28 6 35 6 18 0 15 37 -4 44 -38
14 -54 7 -54 -25z"/>
<path d="M3595 8263 c-21 -21 -14 -38 16 -38 17 0 25 6 27 21 4 27 -23 38 -43
17z"/>
<path d="M3600 8164 c0 -22 4 -25 28 -22 19 2 28 9 30 26 3 19 -1 22 -27 22
-27 0 -31 -4 -31 -26z"/>
<path d="M3868 7400 c-107 -17 -225 -78 -294 -152 -55 -59 -112 -168 -132
-253 -17 -76 -18 -155 -17 -1620 2 -1647 0 -1575 52 -1680 67 -133 167 -229
286 -274 139 -51 145 -51 1543 -52 860 0 1317 4 1353 11 66 12 64 12 55 -2 -4
-7 -3 -8 5 -4 6 4 9 12 6 17 -4 5 0 9 7 9 57 0 234 129 301 220 50 68 106 200
117 277 11 80 13 2704 1 2919 -7 133 -9 145 -43 215 -69 145 -170 254 -287
314 -136 68 -140 68 -751 59 -300 -5 -678 -8 -840 -7 -162 2 -522 5 -800 7
-278 3 -530 1 -562 -4z m417 -75 c-11 -9 -55 -41 -98 -72 -84 -61 -152 -144
-208 -253 l-33 -65 -7 -260 c-4 -143 -6 -773 -5 -1400 2 -950 4 -1147 16
-1180 18 -50 123 -156 187 -188 96 -48 198 -60 411 -47 94 6 260 8 380 4 l212
-7 0 -26 0 -26 -447 -2 c-494 -2 -525 1 -615 59 -61 39 -138 123 -169 185
l-24 48 0 1415 c0 1317 1 1419 17 1471 23 74 80 158 170 251 76 79 127 106
198 107 33 0 34 0 15 -14z m2395 -11 c47 -15 98 -31 113 -37 33 -12 84 -72
121 -143 58 -112 56 -56 50 -1649 -6 -1573 -12 -1741 -54 -1699 -13 13 -13 51
-1 174 15 145 6 2986 -9 3053 -6 27 -24 74 -40 106 -35 70 -125 171 -151 171
-18 0 -18 -4 9 -42 48 -72 82 -136 105 -196 l21 -57 -3 -1485 c-1 -817 -6
-1512 -11 -1546 -20 -148 -157 -314 -295 -356 -115 -35 -192 -40 -672 -45
l-483 -5 0 31 0 31 475 0 c395 0 489 3 552 16 76 15 156 49 201 85 29 23 129
144 147 178 33 65 34 138 35 1604 1 1672 10 1520 -92 1672 -53 78 -132 145
-170 145 -10 0 -18 5 -18 10 0 19 84 11 170 -16z m-2610 11 c0 -3 -27 -33 -59
-67 -33 -35 -68 -74 -79 -88 -34 -44 -100 -183 -111 -237 -15 -74 -17 -2839
-1 -2907 6 -26 17 -61 25 -76 26 -51 160 -143 275 -191 l55 -23 483 3 482 3 0
-26 c0 -23 -4 -26 -37 -26 -21 1 -234 -1 -473 -3 -470 -4 -491 -2 -593 50 -27
13 -70 39 -96 57 -25 18 -58 36 -72 39 -30 8 -68 71 -96 162 -17 57 -18 130
-18 1495 l0 1435 28 80 c29 81 100 206 135 238 11 10 42 27 68 37 70 27 17 26
-64 -1 -76 -26 -106 -59 -168 -185 -80 -166 -75 -48 -72 -1676 l3 -1453 27
-72 c61 -165 140 -285 215 -325 111 -61 120 -62 691 -66 l522 -3 0 -25 0 -25
-567 3 -568 3 -67 26 c-87 34 -117 54 -129 87 -6 15 -33 66 -60 114 -28 48
-65 125 -82 170 l-32 83 -3 1480 c-3 1674 -9 1550 78 1723 81 160 125 191 273
192 48 0 87 -2 87 -5z m508 -17 c2 -13 -8 -20 -40 -28 -217 -54 -343 -131
-417 -254 -18 -31 -39 -80 -45 -109 -9 -38 -12 -407 -11 -1387 l0 -1335 23
-42 c64 -120 130 -157 333 -182 117 -15 138 -20 114 -27 -56 -16 -245 -11
-313 10 -78 23 -141 83 -184 172 l-28 61 2 1374 c3 1554 -5 1407 87 1529 60
79 136 139 234 185 105 50 238 68 245 33z m1740 5 c21 -10 71 -50 113 -91 85
-80 139 -170 158 -260 16 -76 16 -2790 0 -2864 -28 -129 -79 -199 -184 -249
-98 -47 -137 -50 -593 -48 l-423 3 3 34 3 34 135 -1 c74 0 252 -4 395 -7 265
-7 377 1 435 31 43 22 119 95 144 138 13 23 29 66 35 95 12 58 13 846 2 2112
l-6 735 -33 67 c-45 92 -138 186 -223 226 -37 18 -72 39 -79 47 -11 13 -6 15
35 15 26 0 63 -8 83 -17z m-278 -4 c83 -13 228 -83 295 -142 91 -80 156 -254
140 -375 l-8 -57 -14 85 c-19 116 -69 217 -148 295 -65 66 -117 94 -265 145
-110 38 -112 38 -105 51 8 12 25 11 105 -2z m479 -29 c45 -22 84 -69 134 -160
73 -133 68 -15 67 -1600 -1 -974 -5 -1444 -12 -1485 -6 -33 -20 -79 -30 -102
-35 -76 -164 -184 -267 -225 -55 -21 -67 -21 -538 -22 l-483 -1 0 28 0 29 463
-3 c455 -2 463 -2 527 20 80 28 106 44 171 106 62 59 95 123 109 208 11 72 5
2875 -6 2925 -20 83 -127 239 -188 271 -60 32 -9 43 53 11z m-2809 -19 c0 -5
-22 -47 -49 -93 -27 -45 -60 -112 -73 -148 l-23 -65 0 -1530 0 -1530 33 -89
c33 -92 76 -170 121 -218 13 -16 20 -28 14 -28 -17 0 -90 57 -116 92 -36 47
-85 153 -97 212 -7 35 -9 543 -8 1586 l3 1535 23 60 c33 87 98 192 130 209 32
18 42 19 42 7z m1564 -125 c3 -13 22 -47 43 -77 73 -107 142 -284 131 -336 -2
-10 -14 11 -27 49 -31 94 -107 205 -127 186 -1 -2 18 -45 43 -96 25 -51 43
-95 41 -97 -2 -3 -22 27 -44 65 -48 85 -72 101 -42 27 49 -121 60 -153 69
-201 13 -69 14 -285 1 -298 -6 -6 -10 30 -10 109 -1 122 -18 227 -48 284 -22
44 -28 29 -16 -43 21 -119 24 -182 17 -325 -4 -79 -9 -142 -11 -141 -1 2 -7
57 -13 122 -15 173 -33 176 -30 5 2 -128 -2 -159 -20 -159 -11 0 -136 199
-150 240 -19 55 -26 246 -11 326 16 88 50 172 93 232 19 26 47 71 63 99 16 29
32 53 35 53 4 0 10 -11 13 -24z m1782 -158 c18 -60 19 -124 21 -1473 1 -799
-3 -1456 -8 -1517 -9 -97 -22 -162 -38 -180 -3 -4 -6 722 -6 1612 0 891 3
1620 6 1620 4 0 15 -28 25 -62z m-2291 -130 c61 -15 113 -46 155 -89 36 -38
37 -42 49 -153 16 -160 50 -252 131 -354 22 -29 35 -52 28 -52 -23 0 -138 59
-199 102 -124 87 -179 200 -204 420 -3 32 -17 78 -29 102 l-23 46 26 -6 c14
-3 44 -11 66 -16z m1077 -1 c-23 -25 -33 -67 -52 -222 -19 -151 -77 -248 -199
-329 -71 -48 -197 -104 -207 -93 -4 4 16 31 43 60 91 96 122 179 128 343 4 91
7 109 27 133 48 60 185 129 257 130 l24 1 -21 -23z m-1442 -317 c55 -139 140
-230 341 -365 134 -90 177 -127 244 -209 128 -157 205 -388 205 -615 0 -65 0
-65 -19 -46 -11 11 -33 56 -50 100 -73 190 -172 319 -386 502 -124 107 -174
162 -252 280 -30 46 -64 88 -75 94 -20 11 -21 10 -15 -36 9 -62 65 -167 130
-242 29 -34 108 -112 177 -175 69 -63 139 -131 157 -151 49 -56 126 -173 165
-252 37 -74 83 -213 74 -223 -3 -3 -32 19 -63 50 -34 32 -120 91 -208 143
-192 114 -247 151 -315 217 -174 167 -260 377 -260 634 0 201 33 376 96 508
l19 39 6 -99 c5 -66 14 -117 29 -154z m1850 30 c52 -168 62 -397 23 -545 -19
-73 -80 -208 -121 -267 -53 -77 -162 -187 -240 -242 -43 -29 -138 -84 -211
-121 -114 -58 -147 -80 -208 -141 l-74 -72 6 46 c16 117 90 288 175 401 60 80
132 151 271 264 165 134 229 213 229 285 0 27 -4 24 -86 -55 -47 -46 -136
-122 -198 -168 -249 -186 -336 -297 -467 -599 -35 -80 -41 -105 -49 -206 -5
-63 -10 -171 -10 -240 0 -139 -5 -158 -36 -136 -17 13 -19 30 -22 213 -2 109
-1 231 3 271 7 72 25 109 47 96 6 -4 8 -2 4 4 -3 5 -1 12 5 14 6 2 20 35 30
73 65 252 83 309 121 385 64 128 160 220 420 400 200 139 290 278 305 473 l6
79 24 -59 c13 -32 37 -101 53 -153z m-803 30 c3 -47 1 -101 -5 -120 -9 -31
-10 -26 -11 46 -1 45 -3 110 -6 145 -5 53 -4 60 6 39 6 -14 13 -63 16 -110z
m-160 -774 c-2 -206 -6 -300 -15 -320 -21 -48 -31 -19 -42 124 -11 155 -13
279 -4 407 l7 89 29 -4 28 -4 -3 -292z m1194 -489 c-3 -229 -7 -334 -11 -287
-10 104 -11 313 -3 520 11 283 18 158 14 -233z m-2014 51 c21 -19 24 -29 20
-62 -7 -49 -38 -75 -89 -76 -28 0 -42 7 -62 31 -26 30 -34 81 -18 105 27 40
107 41 149 2z m1737 11 c49 -39 28 -117 -41 -145 -38 -16 -62 -9 -87 28 -25
35 -20 76 13 109 35 35 77 38 115 8z m-1357 -299 c158 -56 296 -206 362 -395
18 -49 44 -108 60 -130 16 -22 38 -60 51 -85 128 -257 393 -363 625 -250 111
55 182 140 221 265 22 70 25 98 22 172 -5 120 -38 192 -124 272 -82 77 -149
104 -259 105 -70 1 -89 -3 -147 -31 -121 -57 -193 -154 -268 -359 -21 -59 -46
-114 -55 -123 -15 -15 -17 -14 -31 3 -19 27 -18 52 6 122 36 105 107 237 164
306 46 55 69 74 133 105 67 32 90 38 163 41 139 7 243 -28 336 -112 61 -54
108 -139 134 -242 34 -132 22 -225 -47 -363 -83 -165 -255 -275 -428 -275
-189 1 -334 86 -478 279 -71 95 -94 140 -147 282 -67 178 -155 285 -286 345
-41 19 -65 23 -144 22 -117 -1 -167 -20 -249 -99 -115 -110 -156 -263 -113
-423 38 -141 114 -230 252 -296 60 -29 73 -31 175 -31 100 0 115 3 166 28 57
28 155 115 220 197 35 43 36 44 47 23 22 -40 3 -84 -67 -153 -91 -90 -134
-116 -225 -140 -175 -45 -312 -16 -462 96 -107 80 -165 184 -186 336 -15 103
0 185 52 288 58 114 151 197 260 231 53 16 208 10 267 -11z m-13 -270 c81 -40
124 -138 93 -211 -8 -19 -30 -51 -49 -73 -29 -33 -41 -39 -85 -43 -29 -3 -63
-3 -77 1 -36 9 -94 62 -117 107 -73 144 87 293 235 219z m1030 -24 c97 -73
100 -206 7 -270 -147 -102 -333 54 -252 212 20 38 54 75 81 85 8 4 40 5 72 4
43 -2 64 -9 92 -31z m606 -654 c-22 -82 -108 -159 -222 -199 -51 -18 -262 -13
-317 7 -26 10 -38 10 -52 1 -22 -13 -299 -16 -299 -2 0 21 137 32 315 26 302
-12 421 21 501 136 27 39 73 173 76 224 1 17 4 -12 5 -63 2 -50 -1 -109 -7
-130z m-1185 105 c4 -18 5 -204 3 -414 -3 -348 -5 -384 -20 -400 -12 -11 -21
-14 -28 -7 -7 7 -16 744 -10 847 0 4 11 7 25 7 19 0 25 -6 30 -33z m-412 -294
c-7 -2 -19 -2 -25 0 -7 3 -2 5 12 5 14 0 19 -2 13 -5z m-80 -10 c-7 -2 -21 -2
-30 0 -10 3 -4 5 12 5 17 0 24 -2 18 -5z m-826 -239 c23 -18 68 -43 100 -56
57 -23 63 -23 563 -28 503 -5 505 -5 508 -26 3 -21 0 -21 -314 -27 -501 -11
-642 -9 -709 8 -81 21 -181 73 -216 113 -28 31 -39 60 -20 47 5 -3 12 -1 16 5
7 12 13 9 72 -36z m2853 -15 c-7 -11 -9 -31 -6 -44 4 -17 -1 -32 -19 -51 -14
-15 -25 -32 -25 -38 -1 -16 -38 -39 -95 -60 -27 -11 -56 -23 -63 -29 -29 -23
-126 -26 -664 -20 l-568 6 0 23 0 23 553 3 552 3 97 33 c119 41 179 79 213
132 26 42 44 56 25 19z"/>
<path d="M5587 6433 c-4 -23 -10 -50 -13 -60 -3 -10 2 -5 11 10 9 15 15 42 13
60 -3 31 -3 31 -11 -10z"/>
<path d="M7100 3651 c0 -6 4 -13 10 -16 6 -3 7 1 4 9 -7 18 -14 21 -14 7z"/>
<path d="M6808 3403 c7 -3 16 -2 19 1 4 3 -2 6 -13 5 -11 0 -14 -3 -6 -6z"/>
<path d="M6758 3373 c7 -3 16 -2 19 1 4 3 -2 6 -13 5 -11 0 -14 -3 -6 -6z"/>
<path d="M7595 5300 c-11 -18 5 -30 39 -30 39 0 50 8 35 27 -13 15 -65 18 -74
3z"/>
<path d="M8070 5295 c0 -22 4 -26 23 -23 14 2 22 10 22 23 0 13 -8 21 -22 23
-19 3 -23 -1 -23 -23z"/>
<path d="M2610 2711 l0 -221 61 0 c65 0 89 9 131 48 62 58 75 202 27 299 -30
60 -68 82 -153 90 l-66 6 0 -222z"/>
<path d="M4190 2727 l0 -202 68 5 c77 6 102 20 140 74 24 34 27 49 27 115 0
141 -46 196 -168 205 l-67 5 0 -202z"/>
<path d="M4139 1745 l-17 -45 39 0 38 0 -15 38 c-23 55 -28 56 -45 7z"/>
<path d="M4628 1834 c-5 -4 -8 -24 -8 -44 0 -35 2 -38 36 -43 50 -8 84 7 84
37 0 13 -6 28 -13 34 -17 14 -90 26 -99 16z"/>
<path d="M3630 1785 c0 -53 13 -63 68 -49 27 7 39 16 46 36 14 40 -6 58 -65
58 l-49 0 0 -45z"/>
</g>
</svg>
