<svg width="16" height="12" viewBox="0 0 16 12" fill="none" xmlns="http://www.w3.org/2000/svg">
<path d="M8 0.797241C4.36364 0.797241 1.25818 3.05906 0 6.25179C1.25818 9.44451 4.36364 11.7063 8 11.7063C11.6364 11.7063 14.7418 9.44451 16 6.25179C14.7418 3.05906 11.6364 0.797241 8 0.797241ZM8 9.88815C5.99273 9.88815 4.36364 8.25906 4.36364 6.25179C4.36364 4.24451 5.99273 2.61542 8 2.61542C10.0073 2.61542 11.6364 4.24451 11.6364 6.25179C11.6364 8.25906 10.0073 9.88815 8 9.88815ZM8 4.06997C6.79273 4.06997 5.81818 5.04451 5.81818 6.25179C5.81818 7.45906 6.79273 8.4336 8 8.4336C9.20727 8.4336 10.1818 7.45906 10.1818 6.25179C10.1818 5.04451 9.20727 4.06997 8 4.06997Z" fill="#4D4D4D"/>
</svg>
